<mxfile host="app.diagrams.net" modified="2021-07-05T07:13:16.488Z" agent="5.0 (Windows NT 10.0; Win64; x64) AppleWebKit/537.36 (KHTML, like Gecko) Chrome/91.0.4472.124 Safari/537.36 Edg/91.0.864.64" etag="UxhbmsCq024CQPTk0sQ6" version="14.8.2" type="github">
  <diagram id="4dSV8biOeY9Mt8u1wTXa" name="Page-1">
    <mxGraphModel dx="1308" dy="2056" grid="1" gridSize="10" guides="1" tooltips="1" connect="1" arrows="1" fold="1" page="1" pageScale="1" pageWidth="827" pageHeight="1169" math="0" shadow="0">
      <root>
        <mxCell id="0" />
        <mxCell id="1" parent="0" />
        <mxCell id="zCiI34CFv8VdZSw2ZmV4-1" value="产品" style="rounded=0;whiteSpace=wrap;html=1;fontSize=17;" vertex="1" parent="1">
          <mxGeometry x="20" y="40" width="120" height="60" as="geometry" />
        </mxCell>
        <mxCell id="zCiI34CFv8VdZSw2ZmV4-2" value="计划" style="rounded=0;whiteSpace=wrap;html=1;fontSize=17;" vertex="1" parent="1">
          <mxGeometry x="178" y="40" width="120" height="60" as="geometry" />
        </mxCell>
        <mxCell id="zCiI34CFv8VdZSw2ZmV4-3" value="生产" style="rounded=0;whiteSpace=wrap;html=1;fontSize=17;" vertex="1" parent="1">
          <mxGeometry x="450" y="40" width="120" height="60" as="geometry" />
        </mxCell>
        <mxCell id="zCiI34CFv8VdZSw2ZmV4-4" value="质量" style="rounded=0;whiteSpace=wrap;html=1;fontSize=17;" vertex="1" parent="1">
          <mxGeometry x="608" y="40" width="120" height="60" as="geometry" />
        </mxCell>
        <mxCell id="zCiI34CFv8VdZSw2ZmV4-5" value="堆放" style="rounded=0;whiteSpace=wrap;html=1;fontSize=17;" vertex="1" parent="1">
          <mxGeometry x="765" y="40" width="120" height="60" as="geometry" />
        </mxCell>
        <mxCell id="zCiI34CFv8VdZSw2ZmV4-6" value="用户、部门及权限" style="rounded=0;whiteSpace=wrap;html=1;fontSize=17;" vertex="1" parent="1">
          <mxGeometry x="915" y="40" width="120" height="60" as="geometry" />
        </mxCell>
        <mxCell id="zCiI34CFv8VdZSw2ZmV4-8" value="型号" style="rounded=0;whiteSpace=wrap;html=1;fontSize=17;" vertex="1" parent="1">
          <mxGeometry x="30" y="140" width="100" height="30" as="geometry" />
        </mxCell>
        <mxCell id="zCiI34CFv8VdZSw2ZmV4-15" value="" style="edgeStyle=orthogonalEdgeStyle;rounded=0;orthogonalLoop=1;jettySize=auto;html=1;fontSize=17;" edge="1" parent="1" source="zCiI34CFv8VdZSw2ZmV4-10" target="zCiI34CFv8VdZSw2ZmV4-14">
          <mxGeometry relative="1" as="geometry" />
        </mxCell>
        <mxCell id="zCiI34CFv8VdZSw2ZmV4-10" value="接工" style="rounded=0;whiteSpace=wrap;html=1;fontSize=17;" vertex="1" parent="1">
          <mxGeometry x="460" y="140" width="100" height="30" as="geometry" />
        </mxCell>
        <mxCell id="zCiI34CFv8VdZSw2ZmV4-27" value="" style="edgeStyle=orthogonalEdgeStyle;rounded=0;orthogonalLoop=1;jettySize=auto;html=1;fontSize=17;" edge="1" parent="1" source="zCiI34CFv8VdZSw2ZmV4-11" target="zCiI34CFv8VdZSw2ZmV4-21">
          <mxGeometry relative="1" as="geometry" />
        </mxCell>
        <mxCell id="zCiI34CFv8VdZSw2ZmV4-11" value="报工" style="rounded=0;whiteSpace=wrap;html=1;fontSize=17;" vertex="1" parent="1">
          <mxGeometry x="460" y="350" width="100" height="30" as="geometry" />
        </mxCell>
        <mxCell id="zCiI34CFv8VdZSw2ZmV4-16" value="" style="edgeStyle=orthogonalEdgeStyle;rounded=0;orthogonalLoop=1;jettySize=auto;html=1;fontSize=17;" edge="1" parent="1" source="zCiI34CFv8VdZSw2ZmV4-13" target="zCiI34CFv8VdZSw2ZmV4-14">
          <mxGeometry relative="1" as="geometry" />
        </mxCell>
        <mxCell id="zCiI34CFv8VdZSw2ZmV4-13" value="关键工序" style="rounded=0;whiteSpace=wrap;html=1;fontSize=17;" vertex="1" parent="1">
          <mxGeometry x="460" y="210" width="100" height="30" as="geometry" />
        </mxCell>
        <mxCell id="zCiI34CFv8VdZSw2ZmV4-17" value="" style="edgeStyle=orthogonalEdgeStyle;rounded=0;orthogonalLoop=1;jettySize=auto;html=1;fontSize=17;" edge="1" parent="1" source="zCiI34CFv8VdZSw2ZmV4-14" target="zCiI34CFv8VdZSw2ZmV4-11">
          <mxGeometry relative="1" as="geometry" />
        </mxCell>
        <mxCell id="zCiI34CFv8VdZSw2ZmV4-14" value="关键工序" style="rounded=0;whiteSpace=wrap;html=1;fontSize=17;" vertex="1" parent="1">
          <mxGeometry x="460" y="280" width="100" height="30" as="geometry" />
        </mxCell>
        <mxCell id="zCiI34CFv8VdZSw2ZmV4-18" value="检验任务" style="rounded=0;whiteSpace=wrap;html=1;fontSize=17;" vertex="1" parent="1">
          <mxGeometry x="618" y="140" width="100" height="30" as="geometry" />
        </mxCell>
        <mxCell id="zCiI34CFv8VdZSw2ZmV4-20" value="生成" style="rounded=0;whiteSpace=wrap;html=1;fontSize=17;" vertex="1" parent="1">
          <mxGeometry x="188" y="140" width="100" height="30" as="geometry" />
        </mxCell>
        <mxCell id="zCiI34CFv8VdZSw2ZmV4-21" value="码垛" style="rounded=0;whiteSpace=wrap;html=1;fontSize=17;" vertex="1" parent="1">
          <mxGeometry x="460" y="420" width="100" height="30" as="geometry" />
        </mxCell>
        <mxCell id="zCiI34CFv8VdZSw2ZmV4-24" value="" style="edgeStyle=orthogonalEdgeStyle;rounded=0;orthogonalLoop=1;jettySize=auto;html=1;fontSize=17;" edge="1" parent="1" source="zCiI34CFv8VdZSw2ZmV4-22" target="zCiI34CFv8VdZSw2ZmV4-23">
          <mxGeometry relative="1" as="geometry" />
        </mxCell>
        <mxCell id="zCiI34CFv8VdZSw2ZmV4-22" value="存放" style="rounded=0;whiteSpace=wrap;html=1;fontSize=17;" vertex="1" parent="1">
          <mxGeometry x="775" y="420" width="100" height="30" as="geometry" />
        </mxCell>
        <mxCell id="zCiI34CFv8VdZSw2ZmV4-23" value="出库" style="rounded=0;whiteSpace=wrap;html=1;fontSize=17;" vertex="1" parent="1">
          <mxGeometry x="775" y="490" width="100" height="30" as="geometry" />
        </mxCell>
        <mxCell id="zCiI34CFv8VdZSw2ZmV4-25" value="质量" style="rounded=0;whiteSpace=wrap;html=1;fontSize=17;" vertex="1" parent="1">
          <mxGeometry x="310" y="40" width="120" height="60" as="geometry" />
        </mxCell>
        <mxCell id="zCiI34CFv8VdZSw2ZmV4-26" value="物料需求" style="rounded=0;whiteSpace=wrap;html=1;fontSize=17;" vertex="1" parent="1">
          <mxGeometry x="320" y="140" width="100" height="30" as="geometry" />
        </mxCell>
        <mxCell id="zCiI34CFv8VdZSw2ZmV4-28" value="批次" style="rounded=0;whiteSpace=wrap;html=1;fontSize=17;" vertex="1" parent="1">
          <mxGeometry x="110" y="-130" width="120" height="60" as="geometry" />
        </mxCell>
      </root>
    </mxGraphModel>
  </diagram>
</mxfile>
